<?xml version="1.0" standalone="no"?>
<!DOCTYPE svg PUBLIC "-//W3C//DTD SVG 20010904//EN"
 "http://www.w3.org/TR/2001/REC-SVG-20010904/DTD/svg10.dtd">
<svg version="1.0" xmlns="http://www.w3.org/2000/svg"
 width="704.000000pt" height="704.000000pt" viewBox="0 0 704.000000 704.000000"
 preserveAspectRatio="xMidYMid meet">
<metadata>
Created by potrace 1.14, written by Peter Selinger 2001-2017
</metadata>
<g transform="translate(0.000000,704.000000) scale(0.100000,-0.100000)"
fill="#000000" stroke="none">
<path d="M500 6224 c-30 -8 -59 -16 -65 -17 -5 -2 -20 -9 -32 -15 -13 -7 -23
-10 -23 -7 0 3 -18 -6 -40 -20 -22 -14 -42 -25 -45 -25 -9 0 -60 -44 -120
-105 -116 -117 -175 -274 -170 -449 3 -108 4 -114 30 -191 31 -92 79 -169 150
-240 62 -63 179 -143 218 -149 6 -1 17 -4 22 -8 27 -17 122 -34 204 -37 12 -1
12 -4 -1 -18 -67 -78 -211 -313 -294 -483 -25 -52 -55 -112 -66 -132 -10 -21
-18 -39 -18 -40 2 -3 -11 -37 -34 -93 -19 -43 -72 -207 -105 -320 -21 -74 -66
-289 -76 -365 -3 -25 -8 -62 -11 -82 -3 -20 -8 -54 -11 -75 -3 -21 -8 -604
-10 -1295 l-4 -1258 639 0 c351 0 641 2 644 6 3 3 2 21 -2 40 -4 19 -4 36 0
39 4 3 4 20 0 39 -4 19 -4 39 0 46 4 6 4 28 1 48 -4 20 -4 51 -1 67 3 17 3 49
-1 73 -3 23 -3 42 0 42 3 0 5 44 3 97 -1 54 -2 112 -2 128 1 43 1 44 -2 108
-2 31 0 57 3 57 3 0 3 20 -1 45 -4 25 -3 45 2 45 5 0 7 4 4 9 -4 5 -6 35 -6
68 1 63 -1 117 -4 148 -1 11 1 37 5 58 3 20 3 37 -1 37 -4 0 -4 18 0 40 4 22
4 40 0 40 -4 0 -4 18 0 40 4 22 4 40 0 40 -4 0 -4 18 0 40 4 22 4 40 0 40 -4
0 -4 18 0 40 4 22 4 40 0 40 -4 0 -4 18 0 40 4 22 4 40 0 40 -4 0 -4 18 0 40
4 22 4 40 0 40 -4 0 -4 18 0 40 4 22 4 40 0 40 -4 0 -4 18 0 40 4 22 4 40 0
40 -4 0 -4 18 0 40 4 22 4 40 0 40 -4 0 -4 18 0 40 4 22 4 40 0 40 -4 0 -4 18
0 40 4 22 4 43 0 45 -4 3 -5 20 -1 38 5 18 5 41 1 52 -4 11 -6 23 -4 27 3 4 6
62 9 130 2 68 7 134 10 148 3 14 8 45 11 70 9 77 54 250 91 350 37 101 120
273 153 320 11 16 20 31 20 34 0 7 90 134 139 196 91 116 293 300 411 376 25
16 47 32 50 35 9 11 185 104 250 132 36 16 74 33 85 38 36 16 210 69 225 68 3
0 18 5 34 11 16 6 47 13 70 16 22 2 48 7 56 9 29 9 187 23 275 24 26 1 31 5
34 29 1 15 2 34 2 42 -2 18 0 58 3 85 1 11 -1 35 -5 53 -4 17 -3 34 1 37 5 3
5 18 1 33 -5 15 -5 37 -1 48 5 11 4 27 0 34 -5 7 -4 24 0 36 5 13 5 26 1 29
-5 3 -6 20 -2 37 4 18 4 47 1 63 -4 17 -3 37 1 46 4 8 4 21 -1 29 -4 7 -4 24
0 36 5 13 5 26 1 29 -5 3 -6 20 -2 37 4 18 4 47 1 63 -4 17 -3 37 1 46 4 8 4
21 -1 29 -4 7 -4 24 0 36 5 13 5 26 1 29 -5 3 -6 20 -2 37 4 18 4 47 1 63 -4
17 -3 37 1 46 4 8 4 21 -1 29 -4 7 -4 24 0 36 5 13 5 26 1 29 -5 3 -6 20 -2
37 4 18 4 47 1 63 l-5 30 -110 -1 c-103 -1 -193 -7 -275 -19 -19 -2 -57 -7
-85 -11 -27 -3 -77 -12 -110 -19 -33 -8 -73 -16 -90 -18 -16 -3 -50 -10 -75
-17 -25 -7 -54 -14 -65 -16 -66 -13 -350 -109 -370 -126 -5 -4 -15 -8 -23 -8
-28 0 -318 -143 -424 -208 -15 -9 -65 -41 -112 -69 -46 -29 -90 -59 -98 -66
-22 -21 -69 -49 -75 -44 -3 3 -6 25 -8 49 -12 145 -90 307 -191 399 -90 80
-210 145 -304 164 -68 14 -224 13 -280 -1z"/>
<path d="M3837 6227 c-3 -7 -1 -20 3 -27 5 -7 5 -23 0 -34 -4 -12 -4 -30 0
-41 4 -11 4 -30 -1 -41 -4 -12 -5 -25 -2 -28 8 -8 9 -76 1 -76 -4 0 -3 -13 2
-30 5 -17 5 -32 0 -35 -5 -3 -6 -15 -1 -28 5 -12 5 -32 0 -44 -5 -13 -4 -25 2
-28 5 -4 7 -11 3 -16 -8 -13 -8 -175 0 -188 4 -5 2 -12 -3 -16 -6 -3 -7 -15
-2 -28 5 -12 5 -34 0 -49 -4 -16 -4 -28 1 -28 4 0 5 -15 1 -32 -4 -18 -4 -48
0 -66 3 -18 3 -35 -2 -37 -4 -3 -4 -16 0 -28 5 -12 5 -34 0 -49 -4 -16 -4 -28
1 -28 4 0 5 -15 1 -32 -4 -18 -4 -48 0 -66 3 -18 3 -35 -2 -38 -4 -2 -4 -15 0
-27 5 -12 5 -32 0 -44 -4 -12 -4 -25 0 -27 5 -3 7 -17 6 -31 -3 -22 1 -25 28
-26 144 -3 271 -19 422 -53 142 -32 385 -129 500 -200 24 -14 70 -43 142 -88
29 -18 52 -36 53 -40 0 -3 -28 0 -62 8 -141 34 -324 56 -448 56 -20 0 -198
-12 -230 -16 -236 -26 -556 -135 -741 -251 -21 -14 -41 -25 -44 -25 -3 0 -52
-34 -110 -75 -141 -102 -415 -374 -415 -412 0 -6 -4 -13 -8 -15 -34 -14 -194
-305 -246 -448 -15 -41 -30 -82 -33 -90 -9 -23 -15 -44 -38 -135 -16 -64 -21
-87 -30 -150 -3 -23 -8 -52 -10 -65 -4 -20 -16 -177 -17 -225 0 -14 13 -214
16 -250 5 -45 14 -97 41 -220 3 -16 21 -80 39 -140 3 -10 9 -26 23 -62 3 -10
7 -20 8 -23 2 -7 21 -52 47 -117 12 -29 25 -53 30 -53 4 0 8 -8 8 -18 0 -10 4
-22 9 -27 5 -6 21 -32 36 -60 15 -27 43 -71 61 -98 19 -26 34 -51 34 -56 0 -5
3 -11 8 -13 4 -1 27 -30 52 -63 68 -92 254 -273 362 -353 53 -40 101 -72 107
-72 6 0 11 -4 11 -10 0 -5 4 -10 9 -10 5 0 39 -18 75 -40 36 -22 68 -40 70
-40 2 0 47 -20 100 -45 53 -25 101 -45 106 -45 5 0 21 -5 37 -12 33 -13 29
-12 123 -37 197 -54 295 -66 525 -66 185 0 262 9 424 46 135 31 361 111 369
131 2 5 10 8 17 8 17 0 149 71 153 82 2 4 8 8 13 8 14 0 135 82 214 145 38 31
71 51 73 45 2 -6 2 -27 0 -46 -2 -19 -1 -34 3 -34 3 0 5 -10 2 -23 -7 -46 -8
-217 0 -217 5 0 6 -4 2 -10 -5 -8 -6 -31 -4 -122 0 -17 37 -18 640 -18 l640 0
-4 1253 c-2 688 -6 1270 -10 1292 -3 22 -8 66 -12 98 -3 32 -9 68 -11 80 -3
12 -7 36 -10 52 -33 210 -126 532 -199 692 -8 17 -15 34 -15 37 0 14 -169 346
-181 356 -3 3 -12 16 -19 30 -33 65 -176 271 -192 278 -5 2 -8 10 -8 17 0 8
-6 18 -13 22 -7 4 -20 17 -28 29 -53 78 -315 350 -428 444 -123 103 -344 261
-421 300 -14 7 -27 16 -30 19 -16 19 -240 130 -415 206 -115 50 -426 146 -520
161 -11 1 -31 5 -45 8 -65 14 -102 21 -175 31 -22 3 -58 8 -80 12 -50 8 -88
10 -251 18 -108 5 -132 4 -137 -8z m778 -2880 c190 -49 353 -174 430 -331 22
-43 40 -83 42 -90 1 -6 9 -37 17 -68 14 -56 15 -223 2 -277 -26 -113 -87 -221
-171 -307 -131 -133 -286 -195 -475 -190 -85 3 -167 17 -195 34 -5 4 -16 7
-22 8 -39 6 -156 86 -218 149 -85 85 -142 189 -172 310 -10 40 -11 216 -2 247
5 18 12 47 14 63 3 17 24 68 47 115 57 117 160 221 278 278 47 23 96 44 110
46 14 3 25 5 25 6 0 1 11 4 24 6 14 2 26 6 28 8 6 5 214 -1 238 -7z"/>
</g>
</svg>
