<svg version="1.1" id="Layer_1" xmlns="http://www.w3.org/2000/svg" xmlns:xlink="http://www.w3.org/1999/xlink" x="0px" y="0px" viewBox="0 0 100 100" style="enable-background:new 0 0 100 100;" xml:space="preserve"><style type="text/css">
	.st0{opacity:0.5;fill:#00AEF6;enable-background:new    ;}
	.st1{fill:#FFFFFF;}
</style><circle class="st0" cx="50" cy="50" r="50"></circle><g><path class="st1" d="M74.2,47c-1.2,0-2.2,0.7-2.7,1.8h-4.4c-0.2-2.2-1.1-4-1.4-4.6c0.1-0.7,0-1.4-0.2-2c0-0.1,0-0.1-0.1-0.1h2.2
		l2-1.5c0.5,0.3,1,0.5,1.6,0.5c1.6,0,2.9-1.3,2.9-2.9c0-1.6-1.3-2.9-2.9-2.9c-1.6,0-2.9,1.3-2.9,2.9c0,0.3,0.1,0.6,0.1,0.8L67,40.2
		h-2.6c-1-1.3-2.4-2.1-3.2-2.5c-0.1-1.2-0.6-2.3-1.3-3.2l5.7-6.6h6.7c0.4,1.1,1.5,2,2.7,2c1.6,0,2.9-1.3,2.9-2.9
		c0-1.6-1.3-2.9-2.9-2.9c-1.2,0-2.3,0.8-2.7,2h-7.5l-6.3,7.2c-0.9-0.6-2-1-3.3-1c-2.2,0-4.2,1.2-5.2,3c-1-1.7-2.9-2.8-5.1-2.8
		c-1.2,0-2.2,0.3-3.1,0.9L35.3,26h-7.5c-0.4-1.1-1.5-2-2.7-2c-1.6,0-2.9,1.3-2.9,2.9s1.3,2.9,2.9,2.9c1.2,0,2.3-0.8,2.7-2h6.7
		l5.7,6.6c-0.8,0.9-1.3,2-1.4,3.3c-0.7,0.3-2,1.1-3,2.3H33l-1.5-1.1c0.1-0.3,0.1-0.5,0.1-0.8c0-1.6-1.3-2.9-2.9-2.9
		c-1.6,0-2.9,1.3-2.9,2.9c0,1.6,1.3,2.9,2.9,2.9c0.6,0,1.2-0.2,1.6-0.5l2,1.5h2.2c-0.1,0.1-0.1,0.2-0.1,0.3c-0.2,0.7-0.3,1.4-0.2,2
		c-0.3,0.6-1.2,2.2-1.4,4.4h-4.4c-0.5-1-1.5-1.8-2.7-1.8c-1.6,0-2.9,1.3-2.9,2.9s1.3,2.9,2.9,2.9c1.3,0,2.5-0.9,2.8-2.2h4.2
		c0.1,1.2,0.6,2.5,1.5,3.8c-0.3,0.8-0.5,1.7-0.5,2.9c0,0.1,0,0.1,0,0.1h-3.4l-2,1.5c-0.5-0.3-1-0.5-1.6-0.5c-1.6,0-2.9,1.3-2.9,2.9
		s1.3,2.9,2.9,2.9s2.9-1.3,2.9-2.9c0-0.3-0.1-0.6-0.1-0.8l1.5-1.1h3c0.3,0.8,0.7,1.6,1.4,2.2c1.2,1.1,2.7,1.4,3.5,1.4
		c0.3,1,0.8,2,1.5,2.8l-5.4,6.1H30c-0.4-1.1-1.5-2-2.7-2c-1.6,0-2.9,1.3-2.9,2.9c0,1.6,1.3,2.9,2.9,2.9c1.2,0,2.3-0.8,2.7-2H36
		l6-6.9c0.8,0.5,1.8,0.7,2.7,0.7c0.2,0,0.5,0,0.7-0.1c1.6-0.2,3.1-1,4-2.2c0.2-0.3,0.4-0.5,0.5-0.8c0.1,0.2,0.3,0.4,0.4,0.6
		c1,1.2,2.5,2,4,2.2c0.2,0,0.5,0.1,0.7,0.1c0.9,0,1.8-0.2,2.6-0.6l6.1,7h6.1c0.4,1.1,1.5,2,2.7,2c1.6,0,2.9-1.3,2.9-2.9
		c0-1.6-1.3-2.9-2.9-2.9c-1.2,0-2.3,0.8-2.7,2h-5.2l-5.4-6.3c0.8-0.8,1.4-1.8,1.6-2.9c0.9-0.1,2.4-0.4,3.5-1.4c0.6-0.5,1-1.2,1.3-2
		h3.1l1.5,1.1c-0.1,0.3-0.1,0.5-0.1,0.8c0,1.6,1.3,2.9,2.9,2.9c1.6,0,2.9-1.3,2.9-2.9c0-1.6-1.3-2.9-2.9-2.9c-0.6,0-1.2,0.2-1.6,0.5
		l-2-1.5h-3.4c0-0.1,0-0.2,0-0.3c0-1.2-0.2-2.2-0.5-2.9c0.8-1.2,1.2-2.4,1.4-3.7h4.3c0.3,1.2,1.4,2.2,2.8,2.2c1.6,0,2.9-1.3,2.9-2.9
		S75.8,47,74.2,47z M48.2,64.5c-0.7,0.9-1.8,1.4-2.9,1.6c-1.1,0.1-2.2-0.2-3.1-0.9c-0.9-0.7-1.4-1.8-1.6-2.9
		c-0.1-1.1,0.2-2.2,0.9-3.1c0.6-0.7,1.4-1.2,2.3-1.4c1,2.2,2.8,3.2,2.8,3.2c0.1,0.1,0.3,0.1,0.5,0.1c0.3,0,0.6-0.1,0.8-0.5
		c0.3-0.4,0.1-1-0.3-1.2c-0.2-0.1-4.2-2.5-1.8-7.5c0.2-0.5,0-1-0.4-1.2c-0.5-0.2-1,0-1.2,0.4c-0.9,1.9-1.1,3.6-0.8,4.9
		c-1.2,0.3-2.3,1-3.1,2c-0.8,1-1.2,2.2-1.3,3.4c-0.7-0.1-1.5-0.3-2.2-1c-0.7-0.7-1-1.7-1-3c0-1.7,0.5-2.9,1.5-3.7
		c0.8-0.7,1.8-0.7,2.1-0.6c0.3,0.3,0.8,0.2,1.1-0.1c0.3-0.3,0.3-0.9,0-1.2c-0.7-0.7-2.2-0.5-3.2-0.1c-0.5,0.2-1.1,0.6-1.7,1.2
		c-1.2-2.2-0.8-4.4-0.3-5.9c0.1,0.3,0.3,0.5,0.5,0.7c-0.2,0.7-0.3,1.4-0.1,2.2V50c0,0.4,0.3,0.7,0.7,0.8c0.1,0,0.1,0,0.2,0
		c0.4,0,0.8-0.3,0.8-0.7c0.1-0.2,0-0.4,0-0.5c-0.1-0.6-0.5-2.5,3.1-4c0.5-0.2,0.7-0.7,0.5-1.2C40.5,44,40,43.8,39.6,44
		c-1.3,0.6-2.3,1.3-3.1,2.1C36,44.9,35.8,44,36.2,43c0.1-0.3,0.2-0.6,0.4-0.8h0.1v-0.3c0.6-0.9,1.5-1.6,2.2-2
		c0.6,2.5,2.7,4.4,5.4,4.6c0.2,0.7,0.5,1.5,1.1,2.2c0.2,0.2,0.4,0.3,0.7,0.3c0.2,0,0.5-0.1,0.6-0.3c0.3-0.3,0.4-0.9,0-1.2
		c-1.4-1.4-0.5-4.2-0.5-4.2c0.1-0.5-0.1-1-0.5-1.1c-0.5-0.1-1,0.1-1.1,0.5c0,0.1-0.3,1-0.4,2.1c-2-0.3-3.6-2.1-3.6-4.2
		c0-2.3,1.9-4.2,4.2-4.2c2.3,0,4.2,1.8,4.2,4.1c0,0.1,0,0.1,0,0.2v22.8v0.1C49.2,62.5,48.9,63.6,48.2,64.5z M62.9,51.7
		c-1.1-0.5-2.6-0.6-3.2,0.1c-0.3,0.3-0.3,0.9,0,1.2c0.3,0.3,0.8,0.3,1.1,0.1c0.3-0.1,1.2,0,2.1,0.6c1,0.7,1.5,2,1.5,3.7
		c0,1.3-0.4,2.3-1,3c-0.7,0.7-1.6,0.8-2.2,1c-0.1-1.2-0.5-2.4-1.3-3.4c-0.8-1-1.9-1.7-3.1-2c0.2-1.4,0.1-3-0.8-4.9
		c-0.2-0.5-0.7-0.7-1.2-0.4c-0.5,0.2-0.7,0.7-0.4,1.2c2.4,5-1.6,7.4-1.8,7.5c-0.4,0.3-0.6,0.8-0.3,1.2c0.2,0.3,0.5,0.5,0.8,0.5
		c0.1,0,0.3-0.1,0.5-0.1c0,0,1.8-1.1,2.8-3.2c0.9,0.2,1.7,0.7,2.3,1.4c0.7,0.9,1,2,0.9,3.1c-0.1,1.1-0.7,2.2-1.6,2.9
		c-0.9,0.7-2,1-3.1,0.9c-1.1-0.1-2.2-0.7-2.9-1.6c-0.7-0.9-1-2-0.9-3.1V38.4c0-0.1,0-0.1,0-0.2c0.1-2.3,2-4.1,4.2-4.1
		c2.3,0,4.2,1.9,4.2,4.2c0,2.2-1.6,3.9-3.6,4.2c-0.1-1.1-0.3-2-0.4-2.1c-0.1-0.5-0.7-0.7-1.1-0.5c-0.5,0.1-0.7,0.7-0.5,1.1
		c0,0,0.9,2.7-0.5,4.2c-0.3,0.3-0.3,0.9,0,1.2c0.2,0.2,0.4,0.3,0.6,0.3c0.3,0,0.5-0.1,0.7-0.3c0.6-0.7,1-1.4,1.1-2.2
		c2.6-0.2,4.8-2.2,5.4-4.6c0.7,0.5,1.6,1.1,2.2,2v0.5h0.3c0.1,0.2,0.2,0.4,0.3,0.7c0.3,0.9,0.2,2-0.3,3.1c-0.7-0.8-1.8-1.5-3.1-2.1
		c-0.5-0.2-1,0-1.2,0.5c-0.2,0.5,0,1,0.5,1.2c3.7,1.6,3.3,3.5,3.1,4c0,0.1-0.1,0.3,0,0.5c0.1,0.4,0.5,0.7,0.8,0.7c0.1,0,0.1,0,0.2,0
		c0.4-0.1,0.7-0.5,0.7-0.8v-0.1c0.1-0.8,0.1-1.5-0.1-2.2c0.1-0.3,0.3-0.5,0.4-0.7c0.5,1.6,0.9,3.8-0.3,5.9
		C64,52.2,63.4,51.9,62.9,51.7z"></path></g></svg>