<svg version="1.1" id="Layer_1" xmlns="http://www.w3.org/2000/svg" xmlns:xlink="http://www.w3.org/1999/xlink" x="0px" y="0px" viewBox="0 0 100 100" style="enable-background:new 0 0 100 100;" xml:space="preserve"><style type="text/css">
	.st0{opacity:0.5;fill:#00AEF6;enable-background:new    ;}
	.st1{fill:#FFFFFF;}
</style><circle class="st0" cx="50" cy="50" r="50"></circle><g><path class="st1" d="M65.5,35.1c-0.7,0-1.2,0.6-1.2,1.2v33.4c0,0.7,0.6,1.2,1.2,1.2h6.2c0.7,0,1.2-0.6,1.2-1.2V36.4
		c0-0.7-0.6-1.2-1.2-1.2H65.5z M70.4,68.6h-3.7v-31h3.7V68.6z"></path><path class="st1" d="M53.1,45c-0.7,0-1.2,0.6-1.2,1.2v23.5c0,0.7,0.6,1.2,1.2,1.2h6.2c0.7,0,1.2-0.6,1.2-1.2V46.3
		c0-0.7-0.6-1.2-1.2-1.2H53.1z M58,68.6h-3.7v-21H58V68.6z"></path><path class="st1" d="M40.7,38.9c-0.7,0-1.2,0.6-1.2,1.2v29.7c0,0.7,0.6,1.2,1.2,1.2h6.2c0.7,0,1.2-0.6,1.2-1.2V40.1
		c0-0.7-0.6-1.2-1.2-1.2H40.7z M45.7,68.6H42V41.3h3.7V68.6z"></path><path class="st1" d="M28.3,71h6.2c0.7,0,1.2-0.6,1.2-1.2V51.2c0-0.7-0.6-1.2-1.2-1.2h-6.2c-0.7,0-1.2,0.6-1.2,1.2v18.6
		C27.1,70.5,27.7,71,28.3,71z M29.6,52.5h3.7v16.1h-3.7V52.5z"></path><path class="st1" d="M79.1,73.5H20.9c-0.7,0-1.2,0.6-1.2,1.2c0,0.7,0.6,1.2,1.2,1.2h58.2c0.7,0,1.2-0.6,1.2-1.2
		C80.3,74.1,79.8,73.5,79.1,73.5z"></path><path class="st1" d="M31.4,47.5c2.4,0,4.3-1.9,4.3-4.3c0-0.7-0.2-1.3-0.4-1.9l6.2-5.6c0.7,0.4,1.4,0.6,2.2,0.6
		c1.1,0,2.2-0.4,2.9-1.2l5.1,2.6c0,0.1,0,0.3,0,0.5c0,1,0.3,2,1,2.8c0.8,1,2,1.6,3.3,1.6c2.4,0,4.3-1.9,4.3-4.3
		c0-0.6-0.1-1.2-0.3-1.7l6-4.6c0.7,0.5,1.5,0.7,2.4,0.7c2.4,0,4.3-1.9,4.3-4.3S71,24,68.6,24c-2.4,0-4.3,1.9-4.3,4.3
		c0,0.6,0.1,1.2,0.3,1.7l-6,4.6c-0.7-0.5-1.5-0.7-2.4-0.7c-1.3,0-2.6,0.6-3.4,1.6L48,33.1c0.1-0.3,0.1-0.7,0.1-1
		c0-2.4-1.9-4.3-4.3-4.3s-4.3,1.9-4.3,4.3c0,0.6,0.1,1.3,0.4,1.9l-6.2,5.6c-0.7-0.4-1.4-0.6-2.2-0.6c-2.4,0-4.3,1.9-4.3,4.3
		c0,1,0.3,2,1,2.8C28.9,47,30.1,47.5,31.4,47.5z M68.6,26.5c1,0,1.9,0.8,1.9,1.9c0,1-0.8,1.9-1.9,1.9c-0.5,0-1.1-0.2-1.4-0.7
		c-0.3-0.3-0.4-0.7-0.4-1.2C66.7,27.3,67.5,26.5,68.6,26.5z M56.2,36.4c1,0,1.9,0.8,1.9,1.9s-0.8,1.9-1.9,1.9
		c-0.5,0-1.1-0.2-1.4-0.7c-0.3-0.3-0.4-0.7-0.4-1.2C54.3,37.2,55.2,36.4,56.2,36.4z M43.8,30.2c1,0,1.9,0.8,1.9,1.9
		c0,0.3-0.1,0.6-0.2,0.9c0,0.1-0.1,0.1-0.1,0.2c-0.3,0.5-0.9,0.8-1.5,0.8c-0.5,0-1.1-0.2-1.4-0.7C42.1,32.9,42,32.5,42,32
		C42,31,42.8,30.2,43.8,30.2z M31.4,41.3c1,0,1.9,0.8,1.9,1.9S32.5,45,31.4,45c-0.5,0-1.1-0.2-1.4-0.7c-0.3-0.3-0.4-0.7-0.4-1.2
		C29.6,42.2,30.4,41.3,31.4,41.3z"></path></g></svg>