<svg xmlns="http://www.w3.org/2000/svg" viewBox="0 0 117.15 116.81"><defs><style>.cls-1{fill:#00aef6;}</style></defs><g id="Layer_2"><g id="Layer_1-2"><path class="cls-1" d="M63,32.66h-5.9a1.47,1.47,0,0,0-1.48,1.47v27.4H52.71V43a1.47,1.47,0,0,0-1.47-1.47H45.33A1.47,1.47,0,0,0,43.86,43V61.53h-3V54.79a1.48,1.48,0,0,0-1.48-1.48h-5.9a1.47,1.47,0,0,0-1.47,1.48v6.74h-3V48.88a1.47,1.47,0,0,0-1.48-1.47h-5.9a1.47,1.47,0,0,0-1.47,1.47V64.46H64.51V34.13A1.47,1.47,0,0,0,63,32.66Z" transform="translate(0 0)"></path><path class="cls-1" d="M60.09,17.9a4.44,4.44,0,0,0-4.43,4.43,4.39,4.39,0,0,0,.22,1.31L50.73,27.5a4.37,4.37,0,0,0-2.45-.74,4.42,4.42,0,0,0-4.42,4.42,4.49,4.49,0,0,0,.44,1.9L38.38,39a4.49,4.49,0,0,0-1.9-.44,4.43,4.43,0,0,0-3.06,1.24l-4.37-2.18a4.69,4.69,0,0,0,.06-.54,4.43,4.43,0,1,0-4.43,4.43,4.38,4.38,0,0,0,3.06-1.25l4.37,2.19a4.53,4.53,0,0,0,0,.53,4.43,4.43,0,1,0,8.85,0,4.28,4.28,0,0,0-.45-1.89l5.93-5.93a4.31,4.31,0,0,0,1.89.45,4.43,4.43,0,0,0,4.43-4.43,4.39,4.39,0,0,0-.22-1.31L57.64,26a4.38,4.38,0,0,0,2.45.75,4.43,4.43,0,0,0,0-8.86ZM24.68,39a1.89,1.89,0,1,1,1.89-1.89A1.89,1.89,0,0,1,24.68,39Zm11.8,5.83a1.89,1.89,0,1,1,1.89-1.89A1.89,1.89,0,0,1,36.48,44.83ZM48.31,33.1a1.92,1.92,0,1,1,1.92-1.91A1.91,1.91,0,0,1,48.31,33.1Zm11.77-8.91A1.89,1.89,0,1,1,62,22.3,1.89,1.89,0,0,1,60.08,24.19Z" transform="translate(0 0)"></path><path class="cls-1" d="M114.23,99.81,97,83a9.95,9.95,0,0,0-10.68-2.23L75.73,70.1a42.79,42.79,0,1,0-5.63,5.63L80.73,86.36A10,10,0,0,0,83,97l17.19,16.86a9.95,9.95,0,0,0,14.08,0,9.82,9.82,0,0,0,2.23-3.41A9.94,9.94,0,0,0,114.23,99.81ZM70.07,64.43a35.26,35.26,0,0,1-5.64,5.64,34.83,34.83,0,1,1,5.64-5.64Z" transform="translate(0 0)"></path></g></g></svg>