<svg xmlns="http://www.w3.org/2000/svg" viewBox="0 0 121.26 121.15"><defs><style>.cls-1{fill:#00aef6;}</style></defs><g id="Layer_2"><g id="Layer_1-2"><path class="cls-1" d="M77.55,69.44a25.83,25.83,0,1,1-12.23-22l6-5.93a34,34,0,1,0,8.26,8.23l-6,5.92A25.76,25.76,0,0,1,77.55,69.44Z"></path><path class="cls-1" d="M60.37,69a8.66,8.66,0,1,1-8.66-8.66c.21,0,.42,0,.62,0l7.13-7.09A18,18,0,1,0,69.74,69.59a17.89,17.89,0,0,0-1.94-8.13l-7.44,7.39C60.36,68.91,60.37,69,60.37,69Z"></path><path class="cls-1" d="M94.73,69.44a43,43,0,1,1-17-34.28L83.92,29a51.79,51.79,0,1,0,8.24,8.25L86,43.4A42.86,42.86,0,0,1,94.73,69.44Z"></path><path class="cls-1" d="M110.85,0l0,10.46h0v.09l10.44,0-16.11,16-6-.17L55.17,70a3,3,0,0,1-4.25,0h0l-.12-.11a1.35,1.35,0,0,1-.2-.27,3,3,0,0,1,.33-3.87L94.85,22.09,94.68,16,110.85,0"></path></g></g></svg>