<svg version="1.1" id="Layer_1" xmlns="http://www.w3.org/2000/svg" xmlns:xlink="http://www.w3.org/1999/xlink" x="0px" y="0px" viewBox="0 0 100 100" style="enable-background:new 0 0 100 100;" xml:space="preserve"><style type="text/css">
	.st0{opacity:0.5;fill:#00AEF6;enable-background:new    ;}
	.st1{fill:#FFFFFF;}
</style><circle class="st0" cx="50" cy="50" r="50"></circle><g><path class="st1" d="M36.7,41.2v17.5c0,1.2,1,2.2,2.2,2.2h26.3c1.2,0,2.2-1,2.2-2.2V41.2c0-1.2-1-2.2-2.2-2.2H38.8
		C37.6,39,36.7,40,36.7,41.2z M56.4,58.8H38.8v-4.4h17.5v4.4H56.4z M56.4,52.2H38.8v-4.4h17.5v4.4H56.4z M65.2,58.8h-6.6v-4.4h6.6
		V58.8z M65.2,52.2h-6.6v-4.4h6.6V52.2z M65.2,45.6H38.8v-4.4h26.3L65.2,45.6z M66.2,65.3h-6.6c-0.6,0-1.1,0.5-1.1,1.1
		s0.5,1.1,1.1,1.1h6.6c0.6,0,1.1-0.5,1.1-1.1C67.3,65.8,66.9,65.3,66.2,65.3z M53.1,65.3H37.8c-0.6,0-1.1,0.5-1.1,1.1
		s0.5,1.1,1.1,1.1h15.3c0.6,0,1.1-0.5,1.1-1.1C54.2,65.8,53.7,65.3,53.1,65.3z M37.8,34.7h15.3c0.6,0,1.1-0.5,1.1-1.1
		s-0.5-1.1-1.1-1.1H37.8c-0.6,0-1.1,0.5-1.1,1.1S37.1,34.7,37.8,34.7z M37.8,30.3h11c0.6,0,1.1-0.5,1.1-1.1s-0.5-1.1-1.1-1.1h-11
		c-0.6,0-1.1,0.5-1.1,1.1S37.1,30.3,37.8,30.3z M73.8,35.3c-0.1-0.1-0.1-0.3-0.2-0.4L60.4,21.8c-0.1-0.1-0.2-0.2-0.4-0.2
		c-0.1-0.1-0.3-0.1-0.4-0.1H33.4c-1.8,0-3.3,1.5-3.3,3.3v50.4c0,1.8,1.5,3.3,3.3,3.3h37.3c1.8,0,3.3-1.5,3.3-3.3V35.8
		C73.9,35.6,73.9,35.5,73.8,35.3z M60.8,25.2l9.4,9.4h-8.3c-0.6,0-1.1-0.5-1.1-1.1V25.2z M71.7,75.2c0,0.6-0.5,1.1-1.1,1.1H33.4
		c-0.6,0-1.1-0.5-1.1-1.1V24.8c0-0.6,0.5-1.1,1.1-1.1h25.2v9.9c0,1.8,1.5,3.3,3.3,3.3h9.9v38.3H71.7z"></path></g></svg>