<svg version="1.1" id="Layer_1" xmlns="http://www.w3.org/2000/svg" xmlns:xlink="http://www.w3.org/1999/xlink" x="0px" y="0px" viewBox="0 0 100 100" style="enable-background:new 0 0 100 100;" xml:space="preserve"><style type="text/css">
	.st0{opacity:0.5;fill:#00AEF6;enable-background:new    ;}
	.st1{fill:none;stroke:#FFFFFF;stroke-width:0.6883;stroke-miterlimit:10;}
	.st2{fill:#FFFFFF;}
</style><circle class="st0" cx="50" cy="50" r="50"></circle><g><g><rect x="47.2" y="54.2" class="st1" width="5.6" height="5.4"></rect><circle class="st2" cx="57.8" cy="39.6" r="2.1"></circle><path class="st1" d="M56,39l-17.3-3.4c0,0,11.6,3.2,11.6,18.3"></path><path class="st2" d="M59.2,40.9l0.8,8.7l2.9-3.5l4.1-0.4C67.1,45.7,59.1,40.8,59.2,40.9z"></path><rect x="32.8" y="33.3" class="st1" width="5.6" height="5.4"></rect></g><path class="st2" d="M81.9,68.3V23.4H18v44.9h25.1v3.5h-5.3v4.8h24.3v-4.8h-5.3v-3.5H81.9z M21.8,64.4V27.3h56.5v37.1H21.8z"></path></g></svg>