<svg version="1.1" id="Layer_1" xmlns="http://www.w3.org/2000/svg" xmlns:xlink="http://www.w3.org/1999/xlink" x="0px" y="0px" viewBox="0 0 100 100" style="enable-background:new 0 0 100 100;" xml:space="preserve"><style type="text/css">
	.st0{opacity:0.5;fill:#00AEF6;enable-background:new    ;}
	.st1{fill:#FFFFFF;}
</style><circle class="st0" cx="50" cy="50" r="50"></circle><g><path class="st1" d="M88.1,49.2c-0.4-1.3-1.6-2.3-3-2.3l0,0c-1.4,0-2.6,0.9-3,2.3H66.5v-4.3h10.7c0.5,1.7,2.3,2.6,3.9,2.1
		c1.7-0.5,2.6-2.3,2.1-3.9c-0.5-1.7-2.3-2.6-3.9-2.1c-1,0.3-1.8,1.1-2.1,2.1H66.5v-3.2h10.1c0.5,0,0.9-0.4,0.9-0.9v-2.7
		c1.7-0.5,2.6-2.3,2.1-3.9c-0.5-1.7-2.3-2.6-3.9-2.1c-1.7,0.5-2.6,2.3-2.1,3.9c0.3,1,1.1,1.8,2.1,2.1v1.8h-9.2v-2.3
		c0-1.2-0.9-2.1-2.1-2.1h-2.3v-9.2h1.8c0.5,1.7,2.3,2.6,3.9,2.2c1.7-0.5,2.6-2.3,2.2-3.9c-0.5-1.8-2.3-2.8-4-2.3
		c-1,0.3-1.8,1.1-2.1,2.1h-2.7c-0.5,0-0.9,0.4-0.9,0.9v10.1h-3.2L57,23c1.7-0.5,2.6-2.3,2.1-3.9c-0.5-1.7-2.3-2.6-3.9-2.1
		c-1.7,0.5-2.6,2.3-2.1,3.9c0.3,1,1.1,1.8,2.1,2.1v10.7h-4.3L51,18c1.7-0.5,2.6-2.3,2.1-3.9c-0.5-1.7-2.3-2.6-3.9-2.1
		c-1.7,0.5-2.6,2.3-2.1,3.9c0.3,1,1.1,1.8,2.1,2.1v15.6h-4.3V22.9c1.7-0.5,2.6-2.3,2.2-3.9c-0.5-1.7-2.3-2.6-3.9-2.2
		c-1.7,0.5-2.6,2.3-2.2,3.9c0.3,1,1.1,1.8,2.1,2.1v10.7h-3.2V23.4c0-0.5-0.4-0.9-0.9-0.9h-2.7c-0.5-1.7-2.3-2.6-3.9-2.1
		c-1.7,0.5-2.6,2.3-2.1,3.9c0.5,1.7,2.3,2.6,3.9,2.1c1-0.3,1.8-1.1,2.1-2.1h1.8v9.2h-2.3c-1.2,0-2.1,0.9-2.1,2.1v2.3h-9.1v-1.8
		c1.7-0.5,2.6-2.3,2.1-3.9c-0.5-1.7-2.3-2.6-3.9-2.1S20,32.3,20.5,34c0.3,1,1.1,1.8,2.1,2.1v2.7c0,0.5,0.4,0.9,0.9,0.9h10v3.2H22.9
		c-0.5-1.7-2.3-2.6-3.9-2.1c-1.7,0.5-2.6,2.3-2.1,3.9c0.5,1.7,2.3,2.6,3.9,2.1c1-0.3,1.8-1.1,2.1-2.1h10.6V49L18,49
		c-0.5-1.7-2.3-2.6-3.9-2.2c-1.7,0.5-2.6,2.3-2.2,3.9c0.5,1.7,2.3,2.6,3.9,2.2c1-0.3,1.8-1.1,2.1-2.1h15.6v4.3H22.9
		c-0.5-1.7-2.3-2.6-3.9-2.1c-1.7,0.5-2.6,2.3-2.1,3.9c0.5,1.7,2.3,2.6,3.9,2.1c1-0.3,1.8-1.1,2.1-2.1h10.6v3.2h-10
		c-0.5,0-0.9,0.4-0.9,0.9v2.7c-1.7,0.5-2.6,2.3-2.1,3.9c0.5,1.7,2.3,2.6,3.9,2.1s2.6-2.3,2.1-3.9c-0.3-1-1.1-1.8-2.1-2.1v-1.8h9.1
		v2.3c0,1.2,1,2.1,2.1,2.1H38v9.2h-1.8c-0.5-1.7-2.3-2.6-3.9-2.1c-1.7,0.5-2.6,2.3-2.1,3.9c0.5,1.7,2.3,2.6,3.9,2.1
		c1-0.3,1.8-1.1,2.1-2.1h2.7c0.5,0,0.9-0.4,0.9-0.9V66.3H43V77c-1.7,0.5-2.6,2.3-2.1,3.9c0.5,1.7,2.3,2.6,3.9,2.1
		c1.7-0.5,2.6-2.3,2.1-3.9c-0.3-1-1.1-1.8-2.1-2.1V66.3h4.3L49,82c-1.7,0.5-2.6,2.3-2.1,3.9c0.5,1.7,2.3,2.6,3.9,2.1
		c1.7-0.5,2.6-2.3,2.1-3.9c-0.3-1-1.1-1.8-2.1-2.1V66.4h4.3v10.7c-1.7,0.5-2.6,2.3-2.1,3.9c0.5,1.7,2.3,2.6,3.9,2.1
		c1.7-0.5,2.6-2.3,2.1-3.9c-0.3-1-1.1-1.8-2.1-2.1V66.4h3.2v10.1c0,0.5,0.4,0.9,0.9,0.9h2.7c0.5,1.7,2.3,2.6,3.9,2.1
		c1.7-0.5,2.6-2.3,2.1-3.9c-0.5-1.7-2.3-2.6-3.9-2.1c-1,0.3-1.8,1.1-2.1,2.1h-1.8v-9.2h2.3c1.2,0,2.1-0.9,2.1-2.1V62h9.2v1.8
		c-1.7,0.5-2.6,2.3-2.2,3.9c0.5,1.7,2.3,2.6,3.9,2.2c1.7-0.5,2.6-2.3,2.2-3.9c-0.3-1-1.1-1.8-2.1-2.1v-2.7c0-0.5-0.4-0.9-0.9-0.9
		H66.3v-3.2H77c0.5,1.7,2.3,2.6,3.9,2.1c1.7-0.5,2.6-2.3,2.1-3.9c-0.5-1.7-2.3-2.6-3.9-2.1c-1,0.3-1.8,1.1-2.1,2.1H66.3v-4.2H82
		c0.5,1.7,2.3,2.6,3.9,2.1C87.7,52.6,88.6,50.9,88.1,49.2z M78.7,43.9c0-0.8,0.6-1.4,1.4-1.4s1.4,0.6,1.4,1.4c0,0.8-0.6,1.4-1.4,1.4
		l0,0C79.4,45.3,78.7,44.7,78.7,43.9C78.7,44,78.7,43.9,78.7,43.9z M75.1,33.2L75.1,33.2c0-0.8,0.6-1.4,1.4-1.4s1.4,0.6,1.4,1.4
		s-0.6,1.4-1.4,1.4C75.7,34.5,75.1,33.9,75.1,33.2z M65.5,23.5c0-0.8,0.6-1.4,1.4-1.4s1.4,0.6,1.4,1.4s-0.6,1.4-1.4,1.4
		S65.5,24.3,65.5,23.5L65.5,23.5z M33.2,24.9L33.2,24.9c-0.8,0-1.4-0.6-1.4-1.4s0.6-1.4,1.4-1.4s1.4,0.6,1.4,1.4
		C34.5,24.3,33.9,24.9,33.2,24.9z M23.5,34.5c-0.8,0-1.4-0.6-1.4-1.4c0-0.8,0.7-1.3,1.4-1.3c0.7,0,1.3,0.6,1.3,1.3
		C24.9,33.9,24.3,34.5,23.5,34.5L23.5,34.5z M19.9,45.3L19.9,45.3c-0.8,0-1.4-0.6-1.4-1.4c0-0.8,0.6-1.4,1.4-1.4s1.4,0.6,1.4,1.4
		S20.7,45.3,19.9,45.3z M16.3,50c0,0.8-0.6,1.4-1.4,1.4c-0.8,0-1.4-0.6-1.4-1.4c0-0.8,0.6-1.4,1.4-1.4l0,0
		C15.7,48.6,16.3,49.2,16.3,50L16.3,50z M19.9,57.4L19.9,57.4c-0.8,0-1.4-0.5-1.5-1.3c0-0.8,0.5-1.4,1.3-1.4c0.1,0,0.1,0,0.2,0
		c0.7,0,1.4,0.6,1.4,1.3l0,0C21.3,56.8,20.7,57.4,19.9,57.4z M24.9,66.8L24.9,66.8c0,0.8-0.6,1.4-1.4,1.4s-1.4-0.6-1.4-1.4
		s0.6-1.4,1.4-1.4l0,0C24.3,65.5,24.9,66.1,24.9,66.8z M34.5,76.5c0,0.8-0.6,1.4-1.4,1.4l0,0c-0.8,0-1.4-0.6-1.4-1.4
		s0.6-1.4,1.4-1.4C33.9,75.1,34.5,75.7,34.5,76.5L34.5,76.5z M66.8,75.1L66.8,75.1c0.8,0,1.4,0.6,1.4,1.4s-0.6,1.4-1.4,1.4
		s-1.4-0.6-1.4-1.4C65.5,75.7,66.1,75.1,66.8,75.1z M54.7,19.9L54.7,19.9c0-0.8,0.6-1.4,1.4-1.4c0.8,0,1.4,0.6,1.3,1.4
		c0,0.8-0.6,1.4-1.4,1.3C55.3,21.3,54.7,20.7,54.7,19.9z M48.6,15C48.6,14.9,48.6,14.9,48.6,15c0-0.8,0.6-1.4,1.4-1.4
		c0.8,0,1.4,0.6,1.4,1.4c0,0.8-0.6,1.4-1.4,1.4C49.2,16.3,48.6,15.7,48.6,15z M42.6,19.9L42.6,19.9c0-0.8,0.5-1.4,1.3-1.5
		c0.8,0,1.4,0.5,1.4,1.3c0,0.1,0,0.1,0,0.2c0,0.7-0.6,1.4-1.3,1.4c0,0,0,0-0.1,0C43.2,21.3,42.6,20.7,42.6,19.9z M45.3,80.1
		L45.3,80.1c0,0.8-0.6,1.4-1.4,1.4c-0.8,0-1.4-0.6-1.4-1.4s0.6-1.4,1.4-1.4l0,0C44.7,78.7,45.3,79.4,45.3,80.1z M51.4,85.1
		c0,0.8-0.6,1.4-1.4,1.4c-0.8,0-1.4-0.6-1.4-1.4c0-0.7,0.6-1.4,1.3-1.4l0,0C50.7,83.7,51.4,84.3,51.4,85.1z M57.4,80.1
		c0,0.8-0.5,1.4-1.3,1.4s-1.4-0.5-1.4-1.3c0-0.1,0-0.1,0-0.2c0-0.7,0.6-1.4,1.3-1.4l0,0C56.8,78.7,57.4,79.4,57.4,80.1z M64.5,64.3
		c0,0.2-0.1,0.3-0.3,0.3l-28.6-0.1c-0.2,0-0.3-0.1-0.3-0.3l0.1-28.6c0-0.2,0.1-0.3,0.3-0.3l28.6,0.1c0.2,0,0.3,0.1,0.3,0.3
		L64.5,64.3z M76.5,65.5L76.5,65.5c0.8,0,1.4,0.6,1.4,1.4l0,0c0,0.8-0.6,1.4-1.4,1.4s-1.4-0.6-1.4-1.4S75.7,65.5,76.5,65.5z
		 M78.7,56.1c0-0.7,0.6-1.4,1.3-1.4l0,0c0.8,0,1.4,0.6,1.4,1.4c0,0.8-0.6,1.4-1.4,1.4C79.3,57.4,78.7,56.8,78.7,56.1L78.7,56.1z
		 M85.1,51.4c-0.8,0-1.4-0.6-1.4-1.4c0-0.7,0.6-1.4,1.3-1.4l0,0c0.8,0,1.4,0.6,1.4,1.4C86.4,50.8,85.8,51.4,85.1,51.4z"></path><path class="st1" d="M56.5,48.2c-0.6-2-2.7-3.1-4.6-2.5c-1-1.5-2.7-2.5-4.5-2.5l0,0c-2.7,0-5,2.2-5.1,4.9c-2,0.4-3.3,2.3-2.9,4.4
		c0.3,1.7,1.8,3,3.5,3h14.4c2.1,0,3.8-1.6,3.8-3.6c0-2.1-1.6-3.8-3.6-3.8C57.2,48.1,56.8,48.1,56.5,48.2z M57.3,54.1H42.9
		c-1.3,0-2.3-1.1-2.2-2.3c0-1.3,1.1-2.3,2.3-2.2l0,0l0,0c0.4,0,0.7-0.2,0.8-0.6v-0.1c0-0.1,0-0.2,0-0.3c-0.1-2.1,1.6-3.8,3.6-3.8
		c1.5,0,2.9,0.9,3.5,2.3c0.2,0.4,0.6,0.5,1,0.4l0,0c1.1-0.6,2.5-0.1,3.1,1c0.2,0.3,0.2,0.6,0.2,0.9c0,0.2,0.1,0.5,0.4,0.6
		c0.6,0.3,0.7-0.2,1.8-0.2c1.3,0,2.3,1,2.3,2.3C59.6,53.1,58.6,54.1,57.3,54.1L57.3,54.1z"></path></g></svg>