<svg xmlns="http://www.w3.org/2000/svg" viewBox="0 0 184.78 184.78"><defs><style>.cls-1{fill:#00ddb7;}.cls-2{fill:#fff;}</style></defs><g id="Layer_2"><g id="Layer_1-2"><path class="cls-1" d="M177.12,84.73a7.65,7.65,0,0,0-7.31,5.48H132V79.93h25.86a7.66,7.66,0,1,0,0-4.36H132V67.82h24.41a2.19,2.19,0,0,0,2.18-2.18V59a7.67,7.67,0,1,0-4.37,0v4.43H132V57.84a5.09,5.09,0,0,0-5.09-5.09h-5.54V30.6h4.43a7.68,7.68,0,1,0,0-4.37h-6.61A2.19,2.19,0,0,0,117,28.41V52.75h-7.74V27a7.67,7.67,0,1,0-4.37,0V52.75H94.57V15a7.66,7.66,0,1,0-4.36,0V52.75H79.93V27a7.67,7.67,0,1,0-4.36,0V52.75H67.82V28.41a2.19,2.19,0,0,0-2.18-2.18H59a7.67,7.67,0,1,0,0,4.37h4.43V52.75H57.77a5.1,5.1,0,0,0-5.09,5.09v5.61H30.6V59a7.66,7.66,0,1,0-4.37,0v6.61a2.19,2.19,0,0,0,2.18,2.18H52.68v7.75H27a7.66,7.66,0,1,0,0,4.36H52.68V90.21H15a7.67,7.67,0,1,0,0,4.36H52.68v10.28H27a7.67,7.67,0,1,0,0,4.37H52.68V117H28.41a2.19,2.19,0,0,0-2.18,2.19v6.61a7.66,7.66,0,1,0,4.37,0v-4.43H52.68v5.61A5.1,5.1,0,0,0,57.77,132h5.68v22.15H59a7.66,7.66,0,1,0,0,4.37h6.61a2.19,2.19,0,0,0,2.18-2.18V132h7.75v25.79a7.66,7.66,0,1,0,4.36,0V132H90.21v37.78a7.66,7.66,0,1,0,4.36,0V132h10.28v25.79a7.67,7.67,0,1,0,4.37,0V132H117v24.34a2.19,2.19,0,0,0,2.19,2.18h6.61a7.66,7.66,0,1,0,0-4.37h-4.43V132h5.54a5.09,5.09,0,0,0,5.09-5.09v-5.61h22.22v4.43a7.68,7.68,0,1,0,4.37,0v-6.61a2.19,2.19,0,0,0-2.18-2.19H132v-7.74h25.86a7.67,7.67,0,1,0,0-4.37H132V94.57h37.85a7.65,7.65,0,1,0,7.31-9.84Z"></path><path class="cls-2" d="M165.13,74.45a3.3,3.3,0,1,1,0,6.6,3.27,3.27,0,0,1-3.3-3.3A3.3,3.3,0,0,1,165.13,74.45Z"></path><path class="cls-2" d="M153.08,51.71a3.3,3.3,0,1,1,3.3,3.3A3.27,3.27,0,0,1,153.08,51.71Z"></path><path class="cls-2" d="M133.07,25.11a3.3,3.3,0,0,1,0,6.6,3.27,3.27,0,0,1-3.3-3.3A3.3,3.3,0,0,1,133.07,25.11Z"></path><path class="cls-2" d="M103.74,19.65A3.3,3.3,0,1,1,107,23,3.26,3.26,0,0,1,103.74,19.65Z"></path><path class="cls-2" d="M89.09,7.66a3.3,3.3,0,1,1,3.3,3.3A3.27,3.27,0,0,1,89.09,7.66Z"></path><path class="cls-2" d="M74.45,19.65a3.3,3.3,0,1,1,6.59,0A3.26,3.26,0,0,1,77.75,23,3.3,3.3,0,0,1,74.45,19.65Z"></path><path class="cls-2" d="M51.71,31.71a3.3,3.3,0,1,1,3.3-3.3A3.27,3.27,0,0,1,51.71,31.71Z"></path><path class="cls-2" d="M25.11,51.71a3.3,3.3,0,0,1,6.59,0A3.26,3.26,0,0,1,28.41,55,3.3,3.3,0,0,1,25.11,51.71Z"></path><path class="cls-2" d="M19.65,81.05a3.3,3.3,0,1,1,3.3-3.3A3.27,3.27,0,0,1,19.65,81.05Z"></path><path class="cls-2" d="M7.66,95.69a3.3,3.3,0,1,1,0-6.6,3.27,3.27,0,0,1,3.3,3.3A3.3,3.3,0,0,1,7.66,95.69Z"></path><path class="cls-2" d="M19.65,110.33a3.3,3.3,0,1,1,0-6.59A3.26,3.26,0,0,1,23,107,3.3,3.3,0,0,1,19.65,110.33Z"></path><path class="cls-2" d="M31.7,133.07a3.3,3.3,0,1,1-3.29-3.3A3.29,3.29,0,0,1,31.7,133.07Z"></path><path class="cls-2" d="M51.71,159.67a3.3,3.3,0,1,1,3.3-3.29A3.29,3.29,0,0,1,51.71,159.67Z"></path><path class="cls-2" d="M81,165.13a3.3,3.3,0,1,1-3.29-3.3A3.29,3.29,0,0,1,81,165.13Z"></path><path class="cls-2" d="M95.69,177.12a3.3,3.3,0,0,1-6.6,0,3.27,3.27,0,0,1,3.3-3.3A3.3,3.3,0,0,1,95.69,177.12Z"></path><path class="cls-2" d="M110.33,165.13a3.3,3.3,0,1,1-6.59,0,3.26,3.26,0,0,1,3.29-3.3A3.3,3.3,0,0,1,110.33,165.13Z"></path><path class="cls-2" d="M133.07,153.08a3.3,3.3,0,1,1-3.3,3.3A3.27,3.27,0,0,1,133.07,153.08Z"></path><path class="cls-2" d="M159.67,133.07a3.3,3.3,0,1,1-3.29-3.3A3.29,3.29,0,0,1,159.67,133.07Z"></path><path class="cls-2" d="M165.13,103.74a3.3,3.3,0,1,1-3.3,3.29A3.26,3.26,0,0,1,165.13,103.74Z"></path><path class="cls-2" d="M177.12,95.69a3.3,3.3,0,0,1-3.3-3.3,3.27,3.27,0,0,1,3.3-3.3,3.3,3.3,0,0,1,0,6.6Z"></path><path class="cls-2" d="M127.6,126.94a.73.73,0,0,1-.73.73H57.77a.73.73,0,0,1-.72-.73V57.84a.73.73,0,0,1,.72-.73h69.1a.73.73,0,0,1,.73.73Z"></path><path class="cls-1" d="M107.74,89.49a9,9,0,0,0-11.14-6,12.61,12.61,0,0,0-10.78-5.92h0A12.5,12.5,0,0,0,73.48,89.38a9,9,0,0,0,1.43,17.83h34.83a9,9,0,1,0-2-17.72Zm2,14.25H74.91a5.5,5.5,0,1,1,.18-11h0A1.73,1.73,0,0,0,77,90.9c0-.23,0-.46,0-.71a9,9,0,0,1,17.27-3.8,1.74,1.74,0,0,0,2.39.83,5.5,5.5,0,0,1,8,4.68,1.73,1.73,0,0,0,.87,1.44c1.36.8,1.8-.59,4.23-.59a5.5,5.5,0,0,1,0,11Z"></path></g></g></svg>