<svg xmlns="http://www.w3.org/2000/svg" xmlns:xlink="http://www.w3.org/1999/xlink" viewBox="0 0 88 68"><defs><style>.cls-1{fill:url(#linear-gradient);}.cls-2{fill:#ffc200;}.cls-3{fill:url(#linear-gradient-2);}</style><linearGradient id="linear-gradient" x1="68" y1="8.36" x2="68" y2="67.85" gradientUnits="userSpaceOnUse"><stop offset="0" stop-color="#ff5f00"></stop><stop offset="1" stop-color="#ff0082"></stop></linearGradient><linearGradient id="linear-gradient-2" x1="17.76" y1="1.63" x2="22.41" y2="68.8" gradientUnits="userSpaceOnUse"><stop offset="0" stop-color="#00aef6"></stop><stop offset="1" stop-color="#00ddb7"></stop></linearGradient></defs><g id="Layer_2"><g id="V2"><path class="cls-1" d="M88,68H72V40A24,24,0,0,0,48,16V0A40,40,0,0,1,88,40Z"></path><path class="cls-2" d="M56,68A24,24,0,1,1,80,44,24,24,0,0,1,56,68Zm0-32a8,8,0,1,0,8,8A8,8,0,0,0,56,36Z"></path><path class="cls-3" d="M16,68H0V40A40,40,0,0,1,40,0V16A24,24,0,0,0,16,40Z"></path><circle class="cls-2" cx="8" cy="8" r="8"></circle></g></g></svg>