<svg version="1.1" id="Layer_1" xmlns="http://www.w3.org/2000/svg" xmlns:xlink="http://www.w3.org/1999/xlink" x="0px" y="0px" viewBox="0 0 100 100" style="enable-background:new 0 0 100 100;" xml:space="preserve"><style type="text/css">
	.st0{opacity:0.5;fill:#00AEF6;enable-background:new    ;}
	.st1{fill:#FFFFFF;}
</style><circle class="st0" cx="50" cy="50" r="50"></circle><g><g><path class="st1" d="M67.6,78H32.4v-7.1c0-1-0.3-12.2,7-15.5c4.4-1.9,4.6-3.9,4.6-4.8c0-0.2,0-0.4,0-0.6c0-0.2,0-0.4,0-0.6
			c-0.1-0.9-0.3-2.8-4.6-4.8c-7.4-3.3-7.1-14.5-7-15.5V22h35.2v7.1c0,1,0.3,12.2-7,15.5c-4.4,1.9-4.6,3.9-4.6,4.8c0,0.2,0,0.4,0,0.6
			c0,0.2,0,0.4,0,0.6c0.1,0.9,0.3,2.8,4.6,4.8c7.4,3.3,7.1,14.5,7,15.5L67.6,78z M36.3,74.1h27.4v-3.3l0,0c0.1-2.6-0.5-9.9-4.7-11.8
			c-4.4-2-6.7-4.6-7-8.1l0,0c0-0.3,0-0.6,0-0.8l0,0l0,0c0-0.3,0-0.5,0-0.8l0,0c0.3-3.5,2.5-6.1,7-8.1c4.2-1.9,4.8-9.1,4.7-11.8v-0.1
			V26H36.3v3.3l0,0c-0.1,2.6,0.5,9.9,4.7,11.8c4.4,2,6.7,4.6,7,8.1l0,0c0,0.3,0,0.6,0,0.8l0,0l0,0c0,0.3,0,0.5,0,0.8l0,0
			c-0.3,3.5-2.5,6.1-7,8.1c-4.2,1.9-4.8,9.1-4.7,11.8v0.1V74.1z"></path></g><g><g><path class="st1" d="M50,54.7c-0.3,0.7-2.2,8.3-2.2,8.3l-8.2,8.1h21.2V71l-8.3-8C52.4,62.2,50.4,55.7,50,54.7z"></path></g><g><path class="st1" d="M42.2,38.4c3.9,1.7,6.5,4,7.8,6.9c1.3-2.9,3.9-5.2,7.8-6.9c0.9-0.4,1.6-1.5,2.1-2.8H40.1
				C40.6,36.8,41.3,37.9,42.2,38.4z"></path></g></g></g></svg>